<svg aria-roledescription="er" viewBox="0 0 490.072265625 554" style="max-width: 490.072px; background-color: white;" xmlns:xlink="http://www.w3.org/1999/xlink" xmlns="http://www.w3.org/2000/svg" width="100%" id="mermaid-0"><style>#mermaid-0{font-family:"trebuchet ms",verdana,arial,sans-serif;font-size:16px;fill:#000000;}#mermaid-0 .error-icon{fill:#552222;}#mermaid-0 .error-text{fill:#552222;stroke:#552222;}#mermaid-0 .edge-thickness-normal{stroke-width:2px;}#mermaid-0 .edge-thickness-thick{stroke-width:3.5px;}#mermaid-0 .edge-pattern-solid{stroke-dasharray:0;}#mermaid-0 .edge-pattern-dashed{stroke-dasharray:3;}#mermaid-0 .edge-pattern-dotted{stroke-dasharray:2;}#mermaid-0 .marker{fill:#000000;stroke:#000000;}#mermaid-0 .marker.cross{stroke:#000000;}#mermaid-0 svg{font-family:"trebuchet ms",verdana,arial,sans-serif;font-size:16px;}#mermaid-0 .entityBox{fill:#cde498;stroke:#13540c;}#mermaid-0 .attributeBoxOdd{fill:#ffffff;stroke:#13540c;}#mermaid-0 .attributeBoxEven{fill:#f2f2f2;stroke:#13540c;}#mermaid-0 .relationshipLabelBox{fill:hsl(78.1578947368, 58.4615384615%, 84.5098039216%);opacity:0.7;background-color:hsl(78.1578947368, 58.4615384615%, 84.5098039216%);}#mermaid-0 .relationshipLabelBox rect{opacity:0.5;}#mermaid-0 .relationshipLine{stroke:#000000;}#mermaid-0 .entityTitleText{text-anchor:middle;font-size:18px;fill:#000000;}#mermaid-0 :root{--mermaid-font-family:"trebuchet ms",verdana,arial,sans-serif;}</style><g/><defs><marker orient="auto" markerHeight="18" markerWidth="18" refY="9" refX="0" id="ONLY_ONE_START"><path d="M9,0 L9,18 M15,0 L15,18" fill="none" stroke="gray"/></marker></defs><defs><marker orient="auto" markerHeight="18" markerWidth="18" refY="9" refX="18" id="ONLY_ONE_END"><path d="M3,0 L3,18 M9,0 L9,18" fill="none" stroke="gray"/></marker></defs><defs><marker orient="auto" markerHeight="18" markerWidth="30" refY="9" refX="0" id="ZERO_OR_ONE_START"><circle r="6" cy="9" cx="21" fill="white" stroke="gray"/><path d="M9,0 L9,18" fill="none" stroke="gray"/></marker></defs><defs><marker orient="auto" markerHeight="18" markerWidth="30" refY="9" refX="30" id="ZERO_OR_ONE_END"><circle r="6" cy="9" cx="9" fill="white" stroke="gray"/><path d="M21,0 L21,18" fill="none" stroke="gray"/></marker></defs><defs><marker orient="auto" markerHeight="36" markerWidth="45" refY="18" refX="18" id="ONE_OR_MORE_START"><path d="M0,18 Q 18,0 36,18 Q 18,36 0,18 M42,9 L42,27" fill="none" stroke="gray"/></marker></defs><defs><marker orient="auto" markerHeight="36" markerWidth="45" refY="18" refX="27" id="ONE_OR_MORE_END"><path d="M3,9 L3,27 M9,18 Q27,0 45,18 Q27,36 9,18" fill="none" stroke="gray"/></marker></defs><defs><marker orient="auto" markerHeight="36" markerWidth="57" refY="18" refX="18" id="ZERO_OR_MORE_START"><circle r="6" cy="18" cx="48" fill="white" stroke="gray"/><path d="M0,18 Q18,0 36,18 Q18,36 0,18" fill="none" stroke="gray"/></marker></defs><defs><marker orient="auto" markerHeight="36" markerWidth="57" refY="18" refX="39" id="ZERO_OR_MORE_END"><circle r="6" cy="18" cx="9" fill="white" stroke="gray"/><path d="M21,18 Q39,0 57,18 Q39,36 21,18" fill="none" stroke="gray"/></marker></defs><path style="stroke: gray; fill: none;" marker-start="url(#ZERO_OR_MORE_START)" marker-end="url(#ONLY_ONE_END)" d="M131.078125,344L131.078125,352.3333333333333C131.078125,360.6666666666667,131.078125,377.3333333333333,141.25681880482458,394C151.43551260964912,410.6666666666667,171.79290021929828,427.3333333333333,181.97159402412282,435.6666666666667L192.15028782894737,444" class="er relationshipLine"/><path style="stroke: gray; fill: none;" marker-start="url(#ZERO_OR_MORE_START)" marker-end="url(#ONLY_ONE_END)" d="M81.078125,121L81.078125,131.16666666666666C81.078125,141.33333333333334,81.078125,161.66666666666666,85.00894261006289,180.16666666666666C88.93976022012578,198.66666666666666,96.80139544025157,215.33333333333334,100.73221305031446,223.66666666666666L104.66303066037736,232" class="er relationshipLine"/><path style="stroke: gray; fill: none;" marker-start="url(#ZERO_OR_MORE_START)" marker-end="url(#ONLY_ONE_END)" d="M405.603515625,333L405.603515625,343.1666666666667C405.603515625,353.3333333333333,405.603515625,373.6666666666667,390.6529947916667,392.79487590269395C375.7024739583333,411.9230851387212,345.8014322916667,429.8461702774423,330.8509114583333,438.8077128468029L315.900390625,447.76925541616345" class="er relationshipLine"/><path style="stroke: gray; fill: none;" marker-start="url(#ZERO_OR_MORE_START)" marker-end="url(#ONLY_ONE_END)" d="M382.01860996462267,132L385.94942757468556,140.33333333333334C389.88024518474845,148.66666666666666,397.74188040487417,165.33333333333334,401.6726980149371,183.83333333333334C405.603515625,202.33333333333334,405.603515625,222.66666666666666,405.603515625,232.83333333333334L405.603515625,243" class="er relationshipLine"/><path style="stroke: gray; fill: none;" marker-start="url(#ZERO_OR_MORE_START)" marker-end="url(#ONLY_ONE_END)" d="M299.705078125,127.06327111141034L289.6819661458333,136.21939259284196C279.6588541666667,145.37551407427358,259.6126302083333,163.68775703713678,241.06056530070757,181.17721185190172C222.5085003930818,198.66666666666666,205.45059453616352,215.33333333333334,196.9216416077044,223.66666666666666L188.39268867924528,232" class="er relationshipLine"/><g transform="translate(63.47265625,232 )" id="entity-habits-e26c0d90-de8c-4394-bce2-42ceec7d6d8c"><rect height="112" width="135.2109375" y="0" x="0" class="er entityBox"/><text style="dominant-baseline: middle; text-anchor: middle; font-size: 12px;" transform="translate(67.60546875,12)" y="0" x="0" id="text-entity-habits-e26c0d90-de8c-4394-bce2-42ceec7d6d8c" class="er entityLabel">habits</text><rect height="22" width="53.6640625" y="24" x="0" class="er attributeBoxOdd"/><text style="dominant-baseline: middle; font-size: 10.2px;" transform="translate(5,35)" y="0" x="0" id="text-entity-habits-e26c0d90-de8c-4394-bce2-42ceec7d6d8c-attr-1-type" class="er entityLabel">String</text><rect height="22" width="59.984375" y="24" x="53.6640625" class="er attributeBoxOdd"/><text style="dominant-baseline: middle; font-size: 10.2px;" transform="translate(58.6640625,35)" y="0" x="0" id="text-entity-habits-e26c0d90-de8c-4394-bce2-42ceec7d6d8c-attr-1-name" class="er entityLabel">id</text><rect height="22" width="21.5625" y="24" x="113.6484375" class="er attributeBoxOdd"/><text style="dominant-baseline: middle; font-size: 10.2px;" transform="translate(118.6484375,35)" y="0" x="0" id="text-entity-habits-e26c0d90-de8c-4394-bce2-42ceec7d6d8c-attr-1-key" class="er entityLabel">PK</text><rect height="22" width="53.6640625" y="46" x="0" class="er attributeBoxEven"/><text style="dominant-baseline: middle; font-size: 10.2px;" transform="translate(5,57)" y="0" x="0" id="text-entity-habits-e26c0d90-de8c-4394-bce2-42ceec7d6d8c-attr-2-type" class="er entityLabel">String</text><rect height="22" width="59.984375" y="46" x="53.6640625" class="er attributeBoxEven"/><text style="dominant-baseline: middle; font-size: 10.2px;" transform="translate(58.6640625,57)" y="0" x="0" id="text-entity-habits-e26c0d90-de8c-4394-bce2-42ceec7d6d8c-attr-2-name" class="er entityLabel">title</text><rect height="22" width="21.5625" y="46" x="113.6484375" class="er attributeBoxEven"/><text style="dominant-baseline: middle; font-size: 10.2px;" transform="translate(118.6484375,57)" y="0" x="0" id="text-entity-habits-e26c0d90-de8c-4394-bce2-42ceec7d6d8c-attr-2-key" class="er entityLabel"/><rect height="22" width="53.6640625" y="68" x="0" class="er attributeBoxOdd"/><text style="dominant-baseline: middle; font-size: 10.2px;" transform="translate(5,79)" y="0" x="0" id="text-entity-habits-e26c0d90-de8c-4394-bce2-42ceec7d6d8c-attr-3-type" class="er entityLabel">DateTime</text><rect height="22" width="59.984375" y="68" x="53.6640625" class="er attributeBoxOdd"/><text style="dominant-baseline: middle; font-size: 10.2px;" transform="translate(58.6640625,79)" y="0" x="0" id="text-entity-habits-e26c0d90-de8c-4394-bce2-42ceec7d6d8c-attr-3-name" class="er entityLabel">created_at</text><rect height="22" width="21.5625" y="68" x="113.6484375" class="er attributeBoxOdd"/><text style="dominant-baseline: middle; font-size: 10.2px;" transform="translate(118.6484375,79)" y="0" x="0" id="text-entity-habits-e26c0d90-de8c-4394-bce2-42ceec7d6d8c-attr-3-key" class="er entityLabel"/><rect height="22" width="53.6640625" y="90" x="0" class="er attributeBoxEven"/><text style="dominant-baseline: middle; font-size: 10.2px;" transform="translate(5,101)" y="0" x="0" id="text-entity-habits-e26c0d90-de8c-4394-bce2-42ceec7d6d8c-attr-4-type" class="er entityLabel">String</text><rect height="22" width="59.984375" y="90" x="53.6640625" class="er attributeBoxEven"/><text style="dominant-baseline: middle; font-size: 10.2px;" transform="translate(58.6640625,101)" y="0" x="0" id="text-entity-habits-e26c0d90-de8c-4394-bce2-42ceec7d6d8c-attr-4-name" class="er entityLabel">device_id</text><rect height="22" width="21.5625" y="90" x="113.6484375" class="er attributeBoxEven"/><text style="dominant-baseline: middle; font-size: 10.2px;" transform="translate(118.6484375,101)" y="0" x="0" id="text-entity-habits-e26c0d90-de8c-4394-bce2-42ceec7d6d8c-attr-4-key" class="er entityLabel"/></g><g transform="translate(20,31 )" id="entity-habitweekdays-34fe1d8e-a229-454a-b985-381e8f8cd6bd"><rect height="90" width="122.15625" y="0" x="0" class="er entityBox"/><text style="dominant-baseline: middle; text-anchor: middle; font-size: 12px;" transform="translate(61.078125,12)" y="0" x="0" id="text-entity-habitweekdays-34fe1d8e-a229-454a-b985-381e8f8cd6bd" class="er entityLabel">habit_week_days</text><rect height="22" width="39.450520833333336" y="24" x="0" class="er attributeBoxOdd"/><text style="dominant-baseline: middle; font-size: 10.2px;" transform="translate(5,35)" y="0" x="0" id="text-entity-habitweekdays-34fe1d8e-a229-454a-b985-381e8f8cd6bd-attr-1-type" class="er entityLabel">String</text><rect height="22" width="58.216145833333336" y="24" x="39.450520833333336" class="er attributeBoxOdd"/><text style="dominant-baseline: middle; font-size: 10.2px;" transform="translate(44.450520833333336,35)" y="0" x="0" id="text-entity-habitweekdays-34fe1d8e-a229-454a-b985-381e8f8cd6bd-attr-1-name" class="er entityLabel">id</text><rect height="22" width="24.489583333333332" y="24" x="97.66666666666667" class="er attributeBoxOdd"/><text style="dominant-baseline: middle; font-size: 10.2px;" transform="translate(102.66666666666667,35)" y="0" x="0" id="text-entity-habitweekdays-34fe1d8e-a229-454a-b985-381e8f8cd6bd-attr-1-key" class="er entityLabel">PK</text><rect height="22" width="39.450520833333336" y="46" x="0" class="er attributeBoxEven"/><text style="dominant-baseline: middle; font-size: 10.2px;" transform="translate(5,57)" y="0" x="0" id="text-entity-habitweekdays-34fe1d8e-a229-454a-b985-381e8f8cd6bd-attr-2-type" class="er entityLabel">String</text><rect height="22" width="58.216145833333336" y="46" x="39.450520833333336" class="er attributeBoxEven"/><text style="dominant-baseline: middle; font-size: 10.2px;" transform="translate(44.450520833333336,57)" y="0" x="0" id="text-entity-habitweekdays-34fe1d8e-a229-454a-b985-381e8f8cd6bd-attr-2-name" class="er entityLabel">habit_id</text><rect height="22" width="24.489583333333332" y="46" x="97.66666666666667" class="er attributeBoxEven"/><text style="dominant-baseline: middle; font-size: 10.2px;" transform="translate(102.66666666666667,57)" y="0" x="0" id="text-entity-habitweekdays-34fe1d8e-a229-454a-b985-381e8f8cd6bd-attr-2-key" class="er entityLabel"/><rect height="22" width="39.450520833333336" y="68" x="0" class="er attributeBoxOdd"/><text style="dominant-baseline: middle; font-size: 10.2px;" transform="translate(5,79)" y="0" x="0" id="text-entity-habitweekdays-34fe1d8e-a229-454a-b985-381e8f8cd6bd-attr-3-type" class="er entityLabel">Int</text><rect height="22" width="58.216145833333336" y="68" x="39.450520833333336" class="er attributeBoxOdd"/><text style="dominant-baseline: middle; font-size: 10.2px;" transform="translate(44.450520833333336,79)" y="0" x="0" id="text-entity-habitweekdays-34fe1d8e-a229-454a-b985-381e8f8cd6bd-attr-3-name" class="er entityLabel">week_day</text><rect height="22" width="24.489583333333332" y="68" x="97.66666666666667" class="er attributeBoxOdd"/><text style="dominant-baseline: middle; font-size: 10.2px;" transform="translate(102.66666666666667,79)" y="0" x="0" id="text-entity-habitweekdays-34fe1d8e-a229-454a-b985-381e8f8cd6bd-attr-3-key" class="er entityLabel"/></g><g transform="translate(341.134765625,243 )" id="entity-days-7486662b-25eb-45e0-ae28-b25610896013"><rect height="90" width="128.9375" y="0" x="0" class="er entityBox"/><text style="dominant-baseline: middle; text-anchor: middle; font-size: 12px;" transform="translate(64.46875,12)" y="0" x="0" id="text-entity-days-7486662b-25eb-45e0-ae28-b25610896013" class="er entityLabel">days</text><rect height="22" width="53.6640625" y="24" x="0" class="er attributeBoxOdd"/><text style="dominant-baseline: middle; font-size: 10.2px;" transform="translate(5,35)" y="0" x="0" id="text-entity-days-7486662b-25eb-45e0-ae28-b25610896013-attr-1-type" class="er entityLabel">String</text><rect height="22" width="53.7109375" y="24" x="53.6640625" class="er attributeBoxOdd"/><text style="dominant-baseline: middle; font-size: 10.2px;" transform="translate(58.6640625,35)" y="0" x="0" id="text-entity-days-7486662b-25eb-45e0-ae28-b25610896013-attr-1-name" class="er entityLabel">id</text><rect height="22" width="21.5625" y="24" x="107.375" class="er attributeBoxOdd"/><text style="dominant-baseline: middle; font-size: 10.2px;" transform="translate(112.375,35)" y="0" x="0" id="text-entity-days-7486662b-25eb-45e0-ae28-b25610896013-attr-1-key" class="er entityLabel">PK</text><rect height="22" width="53.6640625" y="46" x="0" class="er attributeBoxEven"/><text style="dominant-baseline: middle; font-size: 10.2px;" transform="translate(5,57)" y="0" x="0" id="text-entity-days-7486662b-25eb-45e0-ae28-b25610896013-attr-2-type" class="er entityLabel">DateTime</text><rect height="22" width="53.7109375" y="46" x="53.6640625" class="er attributeBoxEven"/><text style="dominant-baseline: middle; font-size: 10.2px;" transform="translate(58.6640625,57)" y="0" x="0" id="text-entity-days-7486662b-25eb-45e0-ae28-b25610896013-attr-2-name" class="er entityLabel">date</text><rect height="22" width="21.5625" y="46" x="107.375" class="er attributeBoxEven"/><text style="dominant-baseline: middle; font-size: 10.2px;" transform="translate(112.375,57)" y="0" x="0" id="text-entity-days-7486662b-25eb-45e0-ae28-b25610896013-attr-2-key" class="er entityLabel"/><rect height="22" width="53.6640625" y="68" x="0" class="er attributeBoxOdd"/><text style="dominant-baseline: middle; font-size: 10.2px;" transform="translate(5,79)" y="0" x="0" id="text-entity-days-7486662b-25eb-45e0-ae28-b25610896013-attr-3-type" class="er entityLabel">String</text><rect height="22" width="53.7109375" y="68" x="53.6640625" class="er attributeBoxOdd"/><text style="dominant-baseline: middle; font-size: 10.2px;" transform="translate(58.6640625,79)" y="0" x="0" id="text-entity-days-7486662b-25eb-45e0-ae28-b25610896013-attr-3-name" class="er entityLabel">device_id</text><rect height="22" width="21.5625" y="68" x="107.375" class="er attributeBoxOdd"/><text style="dominant-baseline: middle; font-size: 10.2px;" transform="translate(112.375,79)" y="0" x="0" id="text-entity-days-7486662b-25eb-45e0-ae28-b25610896013-attr-3-key" class="er entityLabel"/></g><g transform="translate(299.705078125,20 )" id="entity-dayhabits-e73622e5-815b-4330-9a1c-03c294087ccf"><rect height="112" width="111.796875" y="0" x="0" class="er entityBox"/><text style="dominant-baseline: middle; text-anchor: middle; font-size: 12px;" transform="translate(55.8984375,12)" y="0" x="0" id="text-entity-dayhabits-e73622e5-815b-4330-9a1c-03c294087ccf" class="er entityLabel">day_habits</text><rect height="22" width="36.5234375" y="24" x="0" class="er attributeBoxOdd"/><text style="dominant-baseline: middle; font-size: 10.2px;" transform="translate(5,35)" y="0" x="0" id="text-entity-dayhabits-e73622e5-815b-4330-9a1c-03c294087ccf-attr-1-type" class="er entityLabel">String</text><rect height="22" width="53.7109375" y="24" x="36.5234375" class="er attributeBoxOdd"/><text style="dominant-baseline: middle; font-size: 10.2px;" transform="translate(41.5234375,35)" y="0" x="0" id="text-entity-dayhabits-e73622e5-815b-4330-9a1c-03c294087ccf-attr-1-name" class="er entityLabel">id</text><rect height="22" width="21.5625" y="24" x="90.234375" class="er attributeBoxOdd"/><text style="dominant-baseline: middle; font-size: 10.2px;" transform="translate(95.234375,35)" y="0" x="0" id="text-entity-dayhabits-e73622e5-815b-4330-9a1c-03c294087ccf-attr-1-key" class="er entityLabel">PK</text><rect height="22" width="36.5234375" y="46" x="0" class="er attributeBoxEven"/><text style="dominant-baseline: middle; font-size: 10.2px;" transform="translate(5,57)" y="0" x="0" id="text-entity-dayhabits-e73622e5-815b-4330-9a1c-03c294087ccf-attr-2-type" class="er entityLabel">String</text><rect height="22" width="53.7109375" y="46" x="36.5234375" class="er attributeBoxEven"/><text style="dominant-baseline: middle; font-size: 10.2px;" transform="translate(41.5234375,57)" y="0" x="0" id="text-entity-dayhabits-e73622e5-815b-4330-9a1c-03c294087ccf-attr-2-name" class="er entityLabel">day_id</text><rect height="22" width="21.5625" y="46" x="90.234375" class="er attributeBoxEven"/><text style="dominant-baseline: middle; font-size: 10.2px;" transform="translate(95.234375,57)" y="0" x="0" id="text-entity-dayhabits-e73622e5-815b-4330-9a1c-03c294087ccf-attr-2-key" class="er entityLabel"/><rect height="22" width="36.5234375" y="68" x="0" class="er attributeBoxOdd"/><text style="dominant-baseline: middle; font-size: 10.2px;" transform="translate(5,79)" y="0" x="0" id="text-entity-dayhabits-e73622e5-815b-4330-9a1c-03c294087ccf-attr-3-type" class="er entityLabel">String</text><rect height="22" width="53.7109375" y="68" x="36.5234375" class="er attributeBoxOdd"/><text style="dominant-baseline: middle; font-size: 10.2px;" transform="translate(41.5234375,79)" y="0" x="0" id="text-entity-dayhabits-e73622e5-815b-4330-9a1c-03c294087ccf-attr-3-name" class="er entityLabel">habit_id</text><rect height="22" width="21.5625" y="68" x="90.234375" class="er attributeBoxOdd"/><text style="dominant-baseline: middle; font-size: 10.2px;" transform="translate(95.234375,79)" y="0" x="0" id="text-entity-dayhabits-e73622e5-815b-4330-9a1c-03c294087ccf-attr-3-key" class="er entityLabel"/><rect height="22" width="36.5234375" y="90" x="0" class="er attributeBoxEven"/><text style="dominant-baseline: middle; font-size: 10.2px;" transform="translate(5,101)" y="0" x="0" id="text-entity-dayhabits-e73622e5-815b-4330-9a1c-03c294087ccf-attr-4-type" class="er entityLabel">String</text><rect height="22" width="53.7109375" y="90" x="36.5234375" class="er attributeBoxEven"/><text style="dominant-baseline: middle; font-size: 10.2px;" transform="translate(41.5234375,101)" y="0" x="0" id="text-entity-dayhabits-e73622e5-815b-4330-9a1c-03c294087ccf-attr-4-name" class="er entityLabel">device_id</text><rect height="22" width="21.5625" y="90" x="90.234375" class="er attributeBoxEven"/><text style="dominant-baseline: middle; font-size: 10.2px;" transform="translate(95.234375,101)" y="0" x="0" id="text-entity-dayhabits-e73622e5-815b-4330-9a1c-03c294087ccf-attr-4-key" class="er entityLabel"/></g><g transform="translate(178.330078125,444 )" id="entity-device-d976e9d7-e0ef-4c45-bdc7-9759d62c1f18"><rect height="90" width="137.5703125" y="0" x="0" class="er entityBox"/><text style="dominant-baseline: middle; text-anchor: middle; font-size: 12px;" transform="translate(68.78515625,12)" y="0" x="0" id="text-entity-device-d976e9d7-e0ef-4c45-bdc7-9759d62c1f18" class="er entityLabel">device</text><rect height="22" width="53.6640625" y="24" x="0" class="er attributeBoxOdd"/><text style="dominant-baseline: middle; font-size: 10.2px;" transform="translate(5,35)" y="0" x="0" id="text-entity-device-d976e9d7-e0ef-4c45-bdc7-9759d62c1f18-attr-1-type" class="er entityLabel">String</text><rect height="22" width="62.34375" y="24" x="53.6640625" class="er attributeBoxOdd"/><text style="dominant-baseline: middle; font-size: 10.2px;" transform="translate(58.6640625,35)" y="0" x="0" id="text-entity-device-d976e9d7-e0ef-4c45-bdc7-9759d62c1f18-attr-1-name" class="er entityLabel">id</text><rect height="22" width="21.5625" y="24" x="116.0078125" class="er attributeBoxOdd"/><text style="dominant-baseline: middle; font-size: 10.2px;" transform="translate(121.0078125,35)" y="0" x="0" id="text-entity-device-d976e9d7-e0ef-4c45-bdc7-9759d62c1f18-attr-1-key" class="er entityLabel">PK</text><rect height="22" width="53.6640625" y="46" x="0" class="er attributeBoxEven"/><text style="dominant-baseline: middle; font-size: 10.2px;" transform="translate(5,57)" y="0" x="0" id="text-entity-device-d976e9d7-e0ef-4c45-bdc7-9759d62c1f18-attr-2-type" class="er entityLabel">DateTime</text><rect height="22" width="62.34375" y="46" x="53.6640625" class="er attributeBoxEven"/><text style="dominant-baseline: middle; font-size: 10.2px;" transform="translate(58.6640625,57)" y="0" x="0" id="text-entity-device-d976e9d7-e0ef-4c45-bdc7-9759d62c1f18-attr-2-name" class="er entityLabel">created_at</text><rect height="22" width="21.5625" y="46" x="116.0078125" class="er attributeBoxEven"/><text style="dominant-baseline: middle; font-size: 10.2px;" transform="translate(121.0078125,57)" y="0" x="0" id="text-entity-device-d976e9d7-e0ef-4c45-bdc7-9759d62c1f18-attr-2-key" class="er entityLabel"/><rect height="22" width="53.6640625" y="68" x="0" class="er attributeBoxOdd"/><text style="dominant-baseline: middle; font-size: 10.2px;" transform="translate(5,79)" y="0" x="0" id="text-entity-device-d976e9d7-e0ef-4c45-bdc7-9759d62c1f18-attr-3-type" class="er entityLabel">DateTime</text><rect height="22" width="62.34375" y="68" x="53.6640625" class="er attributeBoxOdd"/><text style="dominant-baseline: middle; font-size: 10.2px;" transform="translate(58.6640625,79)" y="0" x="0" id="text-entity-device-d976e9d7-e0ef-4c45-bdc7-9759d62c1f18-attr-3-name" class="er entityLabel">updated_at</text><rect height="22" width="21.5625" y="68" x="116.0078125" class="er attributeBoxOdd"/><text style="dominant-baseline: middle; font-size: 10.2px;" transform="translate(121.0078125,79)" y="0" x="0" id="text-entity-device-d976e9d7-e0ef-4c45-bdc7-9759d62c1f18-attr-3-key" class="er entityLabel"/></g><rect height="14" width="35.015625" y="395.113037109375" x="129.44903564453125" class="er relationshipLabelBox"/><text style="text-anchor: middle; dominant-baseline: middle; font-size: 12px;" y="402.113037109375" x="146.95684814453125" id="rel1" class="er relationshipLabel">device</text><rect height="14" width="27.7265625" y="171.28628540039062" x="70.76082611083984" class="er relationshipLabelBox"/><text style="text-anchor: middle; dominant-baseline: middle; font-size: 12px;" y="178.28628540039062" x="84.62410736083984" id="rel2" class="er relationshipLabel">habit</text><rect height="14" width="35.015625" y="396.83111572265625" x="362.8711242675781" class="er relationshipLabelBox"/><text style="text-anchor: middle; dominant-baseline: middle; font-size: 12px;" y="403.83111572265625" x="380.3789367675781" id="rel3" class="er relationshipLabel">device</text><rect height="14" width="18.9140625" y="178.71371459960938" x="392.60052490234375" class="er relationshipLabelBox"/><text style="text-anchor: middle; dominant-baseline: middle; font-size: 12px;" y="185.71371459960938" x="402.05755615234375" id="rel4" class="er relationshipLabel">day</text><rect height="14" width="27.7265625" y="171.9139862060547" x="229.60287475585938" class="er relationshipLabelBox"/><text style="text-anchor: middle; dominant-baseline: middle; font-size: 12px;" y="178.9139862060547" x="243.46615600585938" id="rel5" class="er relationshipLabel">habit</text></svg>