<svg aria-roledescription="er" viewBox="0 0 470.662109375 488" style="max-width: 470.662px; background-color: white;" xmlns:xlink="http://www.w3.org/1999/xlink" xmlns="http://www.w3.org/2000/svg" width="100%" id="mermaid-0"><style>#mermaid-0{font-family:"trebuchet ms",verdana,arial,sans-serif;font-size:16px;fill:#000000;}#mermaid-0 .error-icon{fill:#552222;}#mermaid-0 .error-text{fill:#552222;stroke:#552222;}#mermaid-0 .edge-thickness-normal{stroke-width:2px;}#mermaid-0 .edge-thickness-thick{stroke-width:3.5px;}#mermaid-0 .edge-pattern-solid{stroke-dasharray:0;}#mermaid-0 .edge-pattern-dashed{stroke-dasharray:3;}#mermaid-0 .edge-pattern-dotted{stroke-dasharray:2;}#mermaid-0 .marker{fill:#000000;stroke:#000000;}#mermaid-0 .marker.cross{stroke:#000000;}#mermaid-0 svg{font-family:"trebuchet ms",verdana,arial,sans-serif;font-size:16px;}#mermaid-0 .entityBox{fill:#cde498;stroke:#13540c;}#mermaid-0 .attributeBoxOdd{fill:#ffffff;stroke:#13540c;}#mermaid-0 .attributeBoxEven{fill:#f2f2f2;stroke:#13540c;}#mermaid-0 .relationshipLabelBox{fill:hsl(78.1578947368, 58.4615384615%, 84.5098039216%);opacity:0.7;background-color:hsl(78.1578947368, 58.4615384615%, 84.5098039216%);}#mermaid-0 .relationshipLabelBox rect{opacity:0.5;}#mermaid-0 .relationshipLine{stroke:#000000;}#mermaid-0 .entityTitleText{text-anchor:middle;font-size:18px;fill:#000000;}#mermaid-0 :root{--mermaid-font-family:"trebuchet ms",verdana,arial,sans-serif;}</style><g/><defs><marker orient="auto" markerHeight="18" markerWidth="18" refY="9" refX="0" id="ONLY_ONE_START"><path d="M9,0 L9,18 M15,0 L15,18" fill="none" stroke="gray"/></marker></defs><defs><marker orient="auto" markerHeight="18" markerWidth="18" refY="9" refX="18" id="ONLY_ONE_END"><path d="M3,0 L3,18 M9,0 L9,18" fill="none" stroke="gray"/></marker></defs><defs><marker orient="auto" markerHeight="18" markerWidth="30" refY="9" refX="0" id="ZERO_OR_ONE_START"><circle r="6" cy="9" cx="21" fill="white" stroke="gray"/><path d="M9,0 L9,18" fill="none" stroke="gray"/></marker></defs><defs><marker orient="auto" markerHeight="18" markerWidth="30" refY="9" refX="30" id="ZERO_OR_ONE_END"><circle r="6" cy="9" cx="9" fill="white" stroke="gray"/><path d="M21,0 L21,18" fill="none" stroke="gray"/></marker></defs><defs><marker orient="auto" markerHeight="36" markerWidth="45" refY="18" refX="18" id="ONE_OR_MORE_START"><path d="M0,18 Q 18,0 36,18 Q 18,36 0,18 M42,9 L42,27" fill="none" stroke="gray"/></marker></defs><defs><marker orient="auto" markerHeight="36" markerWidth="45" refY="18" refX="27" id="ONE_OR_MORE_END"><path d="M3,9 L3,27 M9,18 Q27,0 45,18 Q27,36 9,18" fill="none" stroke="gray"/></marker></defs><defs><marker orient="auto" markerHeight="36" markerWidth="57" refY="18" refX="18" id="ZERO_OR_MORE_START"><circle r="6" cy="18" cx="48" fill="white" stroke="gray"/><path d="M0,18 Q18,0 36,18 Q18,36 0,18" fill="none" stroke="gray"/></marker></defs><defs><marker orient="auto" markerHeight="36" markerWidth="57" refY="18" refX="39" id="ZERO_OR_MORE_END"><circle r="6" cy="18" cx="9" fill="white" stroke="gray"/><path d="M21,18 Q39,0 57,18 Q39,36 21,18" fill="none" stroke="gray"/></marker></defs><path style="stroke: gray; fill: none;" marker-start="url(#ZERO_OR_MORE_START)" marker-end="url(#ONLY_ONE_END)" d="M131.078125,322L131.078125,330.3333333333333C131.078125,338.6666666666667,131.078125,355.3333333333333,143.5792397973744,372C156.08035459474885,388.6666666666667,181.08258418949774,405.3333333333333,193.58369898687215,413.6666666666667L206.0848137842466,422" class="er relationshipLine"/><path style="stroke: gray; fill: none;" marker-start="url(#ZERO_OR_MORE_START)" marker-end="url(#ONLY_ONE_END)" d="M81.078125,121L81.078125,131.16666666666666C81.078125,141.33333333333334,81.078125,161.66666666666666,85.4640899122807,180.16666666666666C89.85005482456141,198.66666666666666,98.62198464912281,215.33333333333334,103.0079495614035,223.66666666666666L107.3939144736842,232" class="er relationshipLine"/><path style="stroke: gray; fill: none;" marker-start="url(#ZERO_OR_MORE_START)" marker-end="url(#ONLY_ONE_END)" d="M397.720703125,311L397.720703125,321.1666666666667C397.720703125,331.3333333333333,397.720703125,351.6666666666667,379.78316745148396,370.1666666666667C361.84563177796804,388.6666666666667,325.9705604309361,405.3333333333333,308.0330247574201,413.6666666666667L290.0954890839041,422" class="er relationshipLine"/><path style="stroke: gray; fill: none;" marker-start="url(#ZERO_OR_MORE_START)" marker-end="url(#ONLY_ONE_END)" d="M374.13579746462267,132L378.06661507468556,140.33333333333334C381.99743268474845,148.66666666666666,389.85906790487417,165.33333333333334,393.7898855149371,183.83333333333334C397.720703125,202.33333333333334,397.720703125,222.66666666666666,397.720703125,232.83333333333334L397.720703125,243" class="er relationshipLine"/><path style="stroke: gray; fill: none;" marker-start="url(#ZERO_OR_MORE_START)" marker-end="url(#ONLY_ONE_END)" d="M294.533203125,127.4828514865612L285.1461588541667,136.56904290546768C275.7591145833333,145.65523432437413,256.9850260416667,163.82761716218707,238.20036663925438,181.24714191442686C219.41570723684208,198.66666666666666,200.6204769736842,215.33333333333334,191.22286184210523,223.66666666666666L181.8252467105263,232" class="er relationshipLine"/><g transform="translate(65,232 )" id="entity-habits-f49a7689-3726-46e0-9780-c319aa3728a7"><rect height="90" width="132.15625" y="0" x="0" class="er entityBox"/><text style="dominant-baseline: middle; text-anchor: middle; font-size: 12px;" transform="translate(66.078125,12)" y="0" x="0" id="text-entity-habits-f49a7689-3726-46e0-9780-c319aa3728a7" class="er entityLabel">habits</text><rect height="22" width="53.6640625" y="24" x="0" class="er attributeBoxOdd"/><text style="dominant-baseline: middle; font-size: 10.2px;" transform="translate(5,35)" y="0" x="0" id="text-entity-habits-f49a7689-3726-46e0-9780-c319aa3728a7-attr-1-type" class="er entityLabel">String</text><rect height="22" width="56.9296875" y="24" x="53.6640625" class="er attributeBoxOdd"/><text style="dominant-baseline: middle; font-size: 10.2px;" transform="translate(58.6640625,35)" y="0" x="0" id="text-entity-habits-f49a7689-3726-46e0-9780-c319aa3728a7-attr-1-name" class="er entityLabel">id</text><rect height="22" width="21.5625" y="24" x="110.59375" class="er attributeBoxOdd"/><text style="dominant-baseline: middle; font-size: 10.2px;" transform="translate(115.59375,35)" y="0" x="0" id="text-entity-habits-f49a7689-3726-46e0-9780-c319aa3728a7-attr-1-key" class="er entityLabel">PK</text><rect height="22" width="53.6640625" y="46" x="0" class="er attributeBoxEven"/><text style="dominant-baseline: middle; font-size: 10.2px;" transform="translate(5,57)" y="0" x="0" id="text-entity-habits-f49a7689-3726-46e0-9780-c319aa3728a7-attr-2-type" class="er entityLabel">String</text><rect height="22" width="56.9296875" y="46" x="53.6640625" class="er attributeBoxEven"/><text style="dominant-baseline: middle; font-size: 10.2px;" transform="translate(58.6640625,57)" y="0" x="0" id="text-entity-habits-f49a7689-3726-46e0-9780-c319aa3728a7-attr-2-name" class="er entityLabel">title</text><rect height="22" width="21.5625" y="46" x="110.59375" class="er attributeBoxEven"/><text style="dominant-baseline: middle; font-size: 10.2px;" transform="translate(115.59375,57)" y="0" x="0" id="text-entity-habits-f49a7689-3726-46e0-9780-c319aa3728a7-attr-2-key" class="er entityLabel"/><rect height="22" width="53.6640625" y="68" x="0" class="er attributeBoxOdd"/><text style="dominant-baseline: middle; font-size: 10.2px;" transform="translate(5,79)" y="0" x="0" id="text-entity-habits-f49a7689-3726-46e0-9780-c319aa3728a7-attr-3-type" class="er entityLabel">DateTime</text><rect height="22" width="56.9296875" y="68" x="53.6640625" class="er attributeBoxOdd"/><text style="dominant-baseline: middle; font-size: 10.2px;" transform="translate(58.6640625,79)" y="0" x="0" id="text-entity-habits-f49a7689-3726-46e0-9780-c319aa3728a7-attr-3-name" class="er entityLabel">createdAp</text><rect height="22" width="21.5625" y="68" x="110.59375" class="er attributeBoxOdd"/><text style="dominant-baseline: middle; font-size: 10.2px;" transform="translate(115.59375,79)" y="0" x="0" id="text-entity-habits-f49a7689-3726-46e0-9780-c319aa3728a7-attr-3-key" class="er entityLabel"/></g><g transform="translate(20,31 )" id="entity-habitweekdays-1f92a6f8-d48a-42d3-9b93-ddd1f49c9e0a"><rect height="90" width="122.15625" y="0" x="0" class="er entityBox"/><text style="dominant-baseline: middle; text-anchor: middle; font-size: 12px;" transform="translate(61.078125,12)" y="0" x="0" id="text-entity-habitweekdays-1f92a6f8-d48a-42d3-9b93-ddd1f49c9e0a" class="er entityLabel">habit_week_days</text><rect height="22" width="41.044270833333336" y="24" x="0" class="er attributeBoxOdd"/><text style="dominant-baseline: middle; font-size: 10.2px;" transform="translate(5,35)" y="0" x="0" id="text-entity-habitweekdays-1f92a6f8-d48a-42d3-9b93-ddd1f49c9e0a-attr-1-type" class="er entityLabel">String</text><rect height="22" width="55.028645833333336" y="24" x="41.044270833333336" class="er attributeBoxOdd"/><text style="dominant-baseline: middle; font-size: 10.2px;" transform="translate(46.044270833333336,35)" y="0" x="0" id="text-entity-habitweekdays-1f92a6f8-d48a-42d3-9b93-ddd1f49c9e0a-attr-1-name" class="er entityLabel">habitId</text><rect height="22" width="26.083333333333332" y="24" x="96.07291666666667" class="er attributeBoxOdd"/><text style="dominant-baseline: middle; font-size: 10.2px;" transform="translate(101.07291666666667,35)" y="0" x="0" id="text-entity-habitweekdays-1f92a6f8-d48a-42d3-9b93-ddd1f49c9e0a-attr-1-key" class="er entityLabel">PK</text><rect height="22" width="41.044270833333336" y="46" x="0" class="er attributeBoxEven"/><text style="dominant-baseline: middle; font-size: 10.2px;" transform="translate(5,57)" y="0" x="0" id="text-entity-habitweekdays-1f92a6f8-d48a-42d3-9b93-ddd1f49c9e0a-attr-2-type" class="er entityLabel">String</text><rect height="22" width="55.028645833333336" y="46" x="41.044270833333336" class="er attributeBoxEven"/><text style="dominant-baseline: middle; font-size: 10.2px;" transform="translate(46.044270833333336,57)" y="0" x="0" id="text-entity-habitweekdays-1f92a6f8-d48a-42d3-9b93-ddd1f49c9e0a-attr-2-name" class="er entityLabel">habitId</text><rect height="22" width="26.083333333333332" y="46" x="96.07291666666667" class="er attributeBoxEven"/><text style="dominant-baseline: middle; font-size: 10.2px;" transform="translate(101.07291666666667,57)" y="0" x="0" id="text-entity-habitweekdays-1f92a6f8-d48a-42d3-9b93-ddd1f49c9e0a-attr-2-key" class="er entityLabel"/><rect height="22" width="41.044270833333336" y="68" x="0" class="er attributeBoxOdd"/><text style="dominant-baseline: middle; font-size: 10.2px;" transform="translate(5,79)" y="0" x="0" id="text-entity-habitweekdays-1f92a6f8-d48a-42d3-9b93-ddd1f49c9e0a-attr-3-type" class="er entityLabel">Int</text><rect height="22" width="55.028645833333336" y="68" x="41.044270833333336" class="er attributeBoxOdd"/><text style="dominant-baseline: middle; font-size: 10.2px;" transform="translate(46.044270833333336,79)" y="0" x="0" id="text-entity-habitweekdays-1f92a6f8-d48a-42d3-9b93-ddd1f49c9e0a-attr-3-name" class="er entityLabel">weekDay</text><rect height="22" width="26.083333333333332" y="68" x="96.07291666666667" class="er attributeBoxOdd"/><text style="dominant-baseline: middle; font-size: 10.2px;" transform="translate(101.07291666666667,79)" y="0" x="0" id="text-entity-habitweekdays-1f92a6f8-d48a-42d3-9b93-ddd1f49c9e0a-attr-3-key" class="er entityLabel"/></g><g transform="translate(344.779296875,243 )" id="entity-days-ec5ea91f-7429-4ad0-870d-aa70d598d3e0"><rect height="68" width="105.8828125" y="0" x="0" class="er entityBox"/><text style="dominant-baseline: middle; text-anchor: middle; font-size: 12px;" transform="translate(52.94140625,12)" y="0" x="0" id="text-entity-days-ec5ea91f-7429-4ad0-870d-aa70d598d3e0" class="er entityLabel">days</text><rect height="22" width="53.6640625" y="24" x="0" class="er attributeBoxOdd"/><text style="dominant-baseline: middle; font-size: 10.2px;" transform="translate(5,35)" y="0" x="0" id="text-entity-days-ec5ea91f-7429-4ad0-870d-aa70d598d3e0-attr-1-type" class="er entityLabel">String</text><rect height="22" width="30.65625" y="24" x="53.6640625" class="er attributeBoxOdd"/><text style="dominant-baseline: middle; font-size: 10.2px;" transform="translate(58.6640625,35)" y="0" x="0" id="text-entity-days-ec5ea91f-7429-4ad0-870d-aa70d598d3e0-attr-1-name" class="er entityLabel">id</text><rect height="22" width="21.5625" y="24" x="84.3203125" class="er attributeBoxOdd"/><text style="dominant-baseline: middle; font-size: 10.2px;" transform="translate(89.3203125,35)" y="0" x="0" id="text-entity-days-ec5ea91f-7429-4ad0-870d-aa70d598d3e0-attr-1-key" class="er entityLabel">PK</text><rect height="22" width="53.6640625" y="46" x="0" class="er attributeBoxEven"/><text style="dominant-baseline: middle; font-size: 10.2px;" transform="translate(5,57)" y="0" x="0" id="text-entity-days-ec5ea91f-7429-4ad0-870d-aa70d598d3e0-attr-2-type" class="er entityLabel">DateTime</text><rect height="22" width="30.65625" y="46" x="53.6640625" class="er attributeBoxEven"/><text style="dominant-baseline: middle; font-size: 10.2px;" transform="translate(58.6640625,57)" y="0" x="0" id="text-entity-days-ec5ea91f-7429-4ad0-870d-aa70d598d3e0-attr-2-name" class="er entityLabel">date</text><rect height="22" width="21.5625" y="46" x="84.3203125" class="er attributeBoxEven"/><text style="dominant-baseline: middle; font-size: 10.2px;" transform="translate(89.3203125,57)" y="0" x="0" id="text-entity-days-ec5ea91f-7429-4ad0-870d-aa70d598d3e0-attr-2-key" class="er entityLabel"/></g><g transform="translate(294.533203125,20 )" id="entity-dayhabits-76f24b3b-bb8e-4137-9b5e-04fbcfdaf47a"><rect height="112" width="106.375" y="0" x="0" class="er entityBox"/><text style="dominant-baseline: middle; text-anchor: middle; font-size: 12px;" transform="translate(53.1875,12)" y="0" x="0" id="text-entity-dayhabits-76f24b3b-bb8e-4137-9b5e-04fbcfdaf47a" class="er entityLabel">day_habits</text><rect height="22" width="36.5234375" y="24" x="0" class="er attributeBoxOdd"/><text style="dominant-baseline: middle; font-size: 10.2px;" transform="translate(5,35)" y="0" x="0" id="text-entity-dayhabits-76f24b3b-bb8e-4137-9b5e-04fbcfdaf47a-attr-1-type" class="er entityLabel">String</text><rect height="22" width="48.2890625" y="24" x="36.5234375" class="er attributeBoxOdd"/><text style="dominant-baseline: middle; font-size: 10.2px;" transform="translate(41.5234375,35)" y="0" x="0" id="text-entity-dayhabits-76f24b3b-bb8e-4137-9b5e-04fbcfdaf47a-attr-1-name" class="er entityLabel">dayId</text><rect height="22" width="21.5625" y="24" x="84.8125" class="er attributeBoxOdd"/><text style="dominant-baseline: middle; font-size: 10.2px;" transform="translate(89.8125,35)" y="0" x="0" id="text-entity-dayhabits-76f24b3b-bb8e-4137-9b5e-04fbcfdaf47a-attr-1-key" class="er entityLabel">PK</text><rect height="22" width="36.5234375" y="46" x="0" class="er attributeBoxEven"/><text style="dominant-baseline: middle; font-size: 10.2px;" transform="translate(5,57)" y="0" x="0" id="text-entity-dayhabits-76f24b3b-bb8e-4137-9b5e-04fbcfdaf47a-attr-2-type" class="er entityLabel">String</text><rect height="22" width="48.2890625" y="46" x="36.5234375" class="er attributeBoxEven"/><text style="dominant-baseline: middle; font-size: 10.2px;" transform="translate(41.5234375,57)" y="0" x="0" id="text-entity-dayhabits-76f24b3b-bb8e-4137-9b5e-04fbcfdaf47a-attr-2-name" class="er entityLabel">dayId</text><rect height="22" width="21.5625" y="46" x="84.8125" class="er attributeBoxEven"/><text style="dominant-baseline: middle; font-size: 10.2px;" transform="translate(89.8125,57)" y="0" x="0" id="text-entity-dayhabits-76f24b3b-bb8e-4137-9b5e-04fbcfdaf47a-attr-2-key" class="er entityLabel"/><rect height="22" width="36.5234375" y="68" x="0" class="er attributeBoxOdd"/><text style="dominant-baseline: middle; font-size: 10.2px;" transform="translate(5,79)" y="0" x="0" id="text-entity-dayhabits-76f24b3b-bb8e-4137-9b5e-04fbcfdaf47a-attr-3-type" class="er entityLabel">String</text><rect height="22" width="48.2890625" y="68" x="36.5234375" class="er attributeBoxOdd"/><text style="dominant-baseline: middle; font-size: 10.2px;" transform="translate(41.5234375,79)" y="0" x="0" id="text-entity-dayhabits-76f24b3b-bb8e-4137-9b5e-04fbcfdaf47a-attr-3-name" class="er entityLabel">habitId</text><rect height="22" width="21.5625" y="68" x="84.8125" class="er attributeBoxOdd"/><text style="dominant-baseline: middle; font-size: 10.2px;" transform="translate(89.8125,79)" y="0" x="0" id="text-entity-dayhabits-76f24b3b-bb8e-4137-9b5e-04fbcfdaf47a-attr-3-key" class="er entityLabel"/><rect height="22" width="36.5234375" y="90" x="0" class="er attributeBoxEven"/><text style="dominant-baseline: middle; font-size: 10.2px;" transform="translate(5,101)" y="0" x="0" id="text-entity-dayhabits-76f24b3b-bb8e-4137-9b5e-04fbcfdaf47a-attr-4-type" class="er entityLabel">String</text><rect height="22" width="48.2890625" y="90" x="36.5234375" class="er attributeBoxEven"/><text style="dominant-baseline: middle; font-size: 10.2px;" transform="translate(41.5234375,101)" y="0" x="0" id="text-entity-dayhabits-76f24b3b-bb8e-4137-9b5e-04fbcfdaf47a-attr-4-name" class="er entityLabel">deviceId</text><rect height="22" width="21.5625" y="90" x="84.8125" class="er attributeBoxEven"/><text style="dominant-baseline: middle; font-size: 10.2px;" transform="translate(89.8125,101)" y="0" x="0" id="text-entity-dayhabits-76f24b3b-bb8e-4137-9b5e-04fbcfdaf47a-attr-4-key" class="er entityLabel"/></g><g transform="translate(190.587890625,422 )" id="entity-Device-5d28e60c-37d8-4f75-a88b-b53fbd1df8a3"><rect height="46" width="100" y="0" x="0" class="er entityBox"/><text style="dominant-baseline: middle; text-anchor: middle; font-size: 12px;" transform="translate(50,12)" y="0" x="0" id="text-entity-Device-5d28e60c-37d8-4f75-a88b-b53fbd1df8a3" class="er entityLabel">Device</text><rect height="22" width="44.296875" y="24" x="0" class="er attributeBoxOdd"/><text style="dominant-baseline: middle; font-size: 10.2px;" transform="translate(5,35)" y="0" x="0" id="text-entity-Device-5d28e60c-37d8-4f75-a88b-b53fbd1df8a3-attr-1-type" class="er entityLabel">String</text><rect height="22" width="26.3671875" y="24" x="44.296875" class="er attributeBoxOdd"/><text style="dominant-baseline: middle; font-size: 10.2px;" transform="translate(49.296875,35)" y="0" x="0" id="text-entity-Device-5d28e60c-37d8-4f75-a88b-b53fbd1df8a3-attr-1-name" class="er entityLabel">id</text><rect height="22" width="29.3359375" y="24" x="70.6640625" class="er attributeBoxOdd"/><text style="dominant-baseline: middle; font-size: 10.2px;" transform="translate(75.6640625,35)" y="0" x="0" id="text-entity-Device-5d28e60c-37d8-4f75-a88b-b53fbd1df8a3-attr-1-key" class="er entityLabel">PK</text></g><rect height="14" width="35.015625" y="375.3305969238281" x="135.2757568359375" class="er relationshipLabelBox"/><text style="text-anchor: middle; dominant-baseline: middle; font-size: 12px;" y="382.3305969238281" x="152.7835693359375" id="rel1" class="er relationshipLabel">device</text><rect height="14" width="27.7265625" y="171.69284057617188" x="71.26161193847656" class="er relationshipLabelBox"/><text style="text-anchor: middle; dominant-baseline: middle; font-size: 12px;" y="178.69284057617188" x="85.12489318847656" id="rel2" class="er relationshipLabel">habit</text><rect height="14" width="35.015625" y="376.0209655761719" x="346.83978271484375" class="er relationshipLabelBox"/><text style="text-anchor: middle; dominant-baseline: middle; font-size: 12px;" y="383.0209655761719" x="364.34759521484375" id="rel3" class="er relationshipLabel">device</text><rect height="14" width="18.9140625" y="178.71371459960938" x="384.71771240234375" class="er relationshipLabelBox"/><text style="text-anchor: middle; dominant-baseline: middle; font-size: 12px;" y="185.71371459960938" x="394.17474365234375" id="rel4" class="er relationshipLabel">day</text><rect height="14" width="27.7265625" y="173.56114196777344" x="225.0758514404297" class="er relationshipLabelBox"/><text style="text-anchor: middle; dominant-baseline: middle; font-size: 12px;" y="180.56114196777344" x="238.9391326904297" id="rel5" class="er relationshipLabel">habit</text></svg>