<svg aria-roledescription="er" viewBox="0 0 471.42578125 488" style="max-width: 471.426px; background-color: white;" xmlns:xlink="http://www.w3.org/1999/xlink" xmlns="http://www.w3.org/2000/svg" width="100%" id="mermaid-0"><style>#mermaid-0{font-family:"trebuchet ms",verdana,arial,sans-serif;font-size:16px;fill:#000000;}#mermaid-0 .error-icon{fill:#552222;}#mermaid-0 .error-text{fill:#552222;stroke:#552222;}#mermaid-0 .edge-thickness-normal{stroke-width:2px;}#mermaid-0 .edge-thickness-thick{stroke-width:3.5px;}#mermaid-0 .edge-pattern-solid{stroke-dasharray:0;}#mermaid-0 .edge-pattern-dashed{stroke-dasharray:3;}#mermaid-0 .edge-pattern-dotted{stroke-dasharray:2;}#mermaid-0 .marker{fill:#000000;stroke:#000000;}#mermaid-0 .marker.cross{stroke:#000000;}#mermaid-0 svg{font-family:"trebuchet ms",verdana,arial,sans-serif;font-size:16px;}#mermaid-0 .entityBox{fill:#cde498;stroke:#13540c;}#mermaid-0 .attributeBoxOdd{fill:#ffffff;stroke:#13540c;}#mermaid-0 .attributeBoxEven{fill:#f2f2f2;stroke:#13540c;}#mermaid-0 .relationshipLabelBox{fill:hsl(78.1578947368, 58.4615384615%, 84.5098039216%);opacity:0.7;background-color:hsl(78.1578947368, 58.4615384615%, 84.5098039216%);}#mermaid-0 .relationshipLabelBox rect{opacity:0.5;}#mermaid-0 .relationshipLine{stroke:#000000;}#mermaid-0 .entityTitleText{text-anchor:middle;font-size:18px;fill:#000000;}#mermaid-0 :root{--mermaid-font-family:"trebuchet ms",verdana,arial,sans-serif;}</style><g/><defs><marker orient="auto" markerHeight="18" markerWidth="18" refY="9" refX="0" id="ONLY_ONE_START"><path d="M9,0 L9,18 M15,0 L15,18" fill="none" stroke="gray"/></marker></defs><defs><marker orient="auto" markerHeight="18" markerWidth="18" refY="9" refX="18" id="ONLY_ONE_END"><path d="M3,0 L3,18 M9,0 L9,18" fill="none" stroke="gray"/></marker></defs><defs><marker orient="auto" markerHeight="18" markerWidth="30" refY="9" refX="0" id="ZERO_OR_ONE_START"><circle r="6" cy="9" cx="21" fill="white" stroke="gray"/><path d="M9,0 L9,18" fill="none" stroke="gray"/></marker></defs><defs><marker orient="auto" markerHeight="18" markerWidth="30" refY="9" refX="30" id="ZERO_OR_ONE_END"><circle r="6" cy="9" cx="9" fill="white" stroke="gray"/><path d="M21,0 L21,18" fill="none" stroke="gray"/></marker></defs><defs><marker orient="auto" markerHeight="36" markerWidth="45" refY="18" refX="18" id="ONE_OR_MORE_START"><path d="M0,18 Q 18,0 36,18 Q 18,36 0,18 M42,9 L42,27" fill="none" stroke="gray"/></marker></defs><defs><marker orient="auto" markerHeight="36" markerWidth="45" refY="18" refX="27" id="ONE_OR_MORE_END"><path d="M3,9 L3,27 M9,18 Q27,0 45,18 Q27,36 9,18" fill="none" stroke="gray"/></marker></defs><defs><marker orient="auto" markerHeight="36" markerWidth="57" refY="18" refX="18" id="ZERO_OR_MORE_START"><circle r="6" cy="18" cx="48" fill="white" stroke="gray"/><path d="M0,18 Q18,0 36,18 Q18,36 0,18" fill="none" stroke="gray"/></marker></defs><defs><marker orient="auto" markerHeight="36" markerWidth="57" refY="18" refX="39" id="ZERO_OR_MORE_END"><circle r="6" cy="18" cx="9" fill="white" stroke="gray"/><path d="M21,18 Q39,0 57,18 Q39,36 21,18" fill="none" stroke="gray"/></marker></defs><path style="stroke: gray; fill: none;" marker-start="url(#ZERO_OR_MORE_START)" marker-end="url(#ONLY_ONE_END)" d="M131.078125,322L131.078125,330.3333333333333C131.078125,338.6666666666667,131.078125,355.3333333333333,143.6664169520548,372C156.2547089041096,388.6666666666667,181.43129280821918,405.3333333333333,194.01958476027394,413.6666666666667L206.60787671232876,422" class="er relationshipLine"/><path style="stroke: gray; fill: none;" marker-start="url(#ZERO_OR_MORE_START)" marker-end="url(#ONLY_ONE_END)" d="M81.078125,121L81.078125,131.16666666666666C81.078125,141.33333333333334,81.078125,161.66666666666666,85.4640899122807,180.16666666666666C89.85005482456141,198.66666666666666,98.62198464912281,215.33333333333334,103.0079495614035,223.66666666666666L107.3939144736842,232" class="er relationshipLine"/><path style="stroke: gray; fill: none;" marker-start="url(#ZERO_OR_MORE_START)" marker-end="url(#ONLY_ONE_END)" d="M398.484375,311L398.484375,321.1666666666667C398.484375,331.3333333333333,398.484375,351.6666666666667,380.54683932648396,370.1666666666667C362.60930365296804,388.6666666666667,326.7342323059361,405.3333333333333,308.7966966324201,413.6666666666667L290.8591609589041,422" class="er relationshipLine"/><path style="stroke: gray; fill: none;" marker-start="url(#ZERO_OR_MORE_START)" marker-end="url(#ONLY_ONE_END)" d="M374.89946933962267,132L378.83028694968556,140.33333333333334C382.76110455974845,148.66666666666666,390.62273977987417,165.33333333333334,394.5535573899371,183.83333333333334C398.484375,202.33333333333334,398.484375,222.66666666666666,398.484375,232.83333333333334L398.484375,243" class="er relationshipLine"/><path style="stroke: gray; fill: none;" marker-start="url(#ZERO_OR_MORE_START)" marker-end="url(#ONLY_ONE_END)" d="M295.296875,127.12631951824301L285.7825520833333,136.27193293186917C276.2682291666667,145.41754634549534,257.2395833333333,163.70877317274767,238.3276452850877,181.18771991970718C219.41570723684208,198.66666666666666,200.6204769736842,215.33333333333334,191.22286184210523,223.66666666666666L181.8252467105263,232" class="er relationshipLine"/><g transform="translate(63.47265625,232 )" id="entity-habits-6fe72e46-80ac-4321-8745-6a32aa6ace1f"><rect height="90" width="135.2109375" y="0" x="0" class="er entityBox"/><text style="dominant-baseline: middle; text-anchor: middle; font-size: 12px;" transform="translate(67.60546875,12)" y="0" x="0" id="text-entity-habits-6fe72e46-80ac-4321-8745-6a32aa6ace1f" class="er entityLabel">habits</text><rect height="22" width="53.6640625" y="24" x="0" class="er attributeBoxOdd"/><text style="dominant-baseline: middle; font-size: 10.2px;" transform="translate(5,35)" y="0" x="0" id="text-entity-habits-6fe72e46-80ac-4321-8745-6a32aa6ace1f-attr-1-type" class="er entityLabel">String</text><rect height="22" width="59.984375" y="24" x="53.6640625" class="er attributeBoxOdd"/><text style="dominant-baseline: middle; font-size: 10.2px;" transform="translate(58.6640625,35)" y="0" x="0" id="text-entity-habits-6fe72e46-80ac-4321-8745-6a32aa6ace1f-attr-1-name" class="er entityLabel">id</text><rect height="22" width="21.5625" y="24" x="113.6484375" class="er attributeBoxOdd"/><text style="dominant-baseline: middle; font-size: 10.2px;" transform="translate(118.6484375,35)" y="0" x="0" id="text-entity-habits-6fe72e46-80ac-4321-8745-6a32aa6ace1f-attr-1-key" class="er entityLabel">PK</text><rect height="22" width="53.6640625" y="46" x="0" class="er attributeBoxEven"/><text style="dominant-baseline: middle; font-size: 10.2px;" transform="translate(5,57)" y="0" x="0" id="text-entity-habits-6fe72e46-80ac-4321-8745-6a32aa6ace1f-attr-2-type" class="er entityLabel">String</text><rect height="22" width="59.984375" y="46" x="53.6640625" class="er attributeBoxEven"/><text style="dominant-baseline: middle; font-size: 10.2px;" transform="translate(58.6640625,57)" y="0" x="0" id="text-entity-habits-6fe72e46-80ac-4321-8745-6a32aa6ace1f-attr-2-name" class="er entityLabel">title</text><rect height="22" width="21.5625" y="46" x="113.6484375" class="er attributeBoxEven"/><text style="dominant-baseline: middle; font-size: 10.2px;" transform="translate(118.6484375,57)" y="0" x="0" id="text-entity-habits-6fe72e46-80ac-4321-8745-6a32aa6ace1f-attr-2-key" class="er entityLabel"/><rect height="22" width="53.6640625" y="68" x="0" class="er attributeBoxOdd"/><text style="dominant-baseline: middle; font-size: 10.2px;" transform="translate(5,79)" y="0" x="0" id="text-entity-habits-6fe72e46-80ac-4321-8745-6a32aa6ace1f-attr-3-type" class="er entityLabel">DateTime</text><rect height="22" width="59.984375" y="68" x="53.6640625" class="er attributeBoxOdd"/><text style="dominant-baseline: middle; font-size: 10.2px;" transform="translate(58.6640625,79)" y="0" x="0" id="text-entity-habits-6fe72e46-80ac-4321-8745-6a32aa6ace1f-attr-3-name" class="er entityLabel">created_at</text><rect height="22" width="21.5625" y="68" x="113.6484375" class="er attributeBoxOdd"/><text style="dominant-baseline: middle; font-size: 10.2px;" transform="translate(118.6484375,79)" y="0" x="0" id="text-entity-habits-6fe72e46-80ac-4321-8745-6a32aa6ace1f-attr-3-key" class="er entityLabel"/></g><g transform="translate(20,31 )" id="entity-habitweekdays-42fe390a-9656-481e-a584-3d0b083e19c0"><rect height="90" width="122.15625" y="0" x="0" class="er entityBox"/><text style="dominant-baseline: middle; text-anchor: middle; font-size: 12px;" transform="translate(61.078125,12)" y="0" x="0" id="text-entity-habitweekdays-42fe390a-9656-481e-a584-3d0b083e19c0" class="er entityLabel">habit_week_days</text><rect height="22" width="39.450520833333336" y="24" x="0" class="er attributeBoxOdd"/><text style="dominant-baseline: middle; font-size: 10.2px;" transform="translate(5,35)" y="0" x="0" id="text-entity-habitweekdays-42fe390a-9656-481e-a584-3d0b083e19c0-attr-1-type" class="er entityLabel">String</text><rect height="22" width="58.216145833333336" y="24" x="39.450520833333336" class="er attributeBoxOdd"/><text style="dominant-baseline: middle; font-size: 10.2px;" transform="translate(44.450520833333336,35)" y="0" x="0" id="text-entity-habitweekdays-42fe390a-9656-481e-a584-3d0b083e19c0-attr-1-name" class="er entityLabel">id</text><rect height="22" width="24.489583333333332" y="24" x="97.66666666666667" class="er attributeBoxOdd"/><text style="dominant-baseline: middle; font-size: 10.2px;" transform="translate(102.66666666666667,35)" y="0" x="0" id="text-entity-habitweekdays-42fe390a-9656-481e-a584-3d0b083e19c0-attr-1-key" class="er entityLabel">PK</text><rect height="22" width="39.450520833333336" y="46" x="0" class="er attributeBoxEven"/><text style="dominant-baseline: middle; font-size: 10.2px;" transform="translate(5,57)" y="0" x="0" id="text-entity-habitweekdays-42fe390a-9656-481e-a584-3d0b083e19c0-attr-2-type" class="er entityLabel">String</text><rect height="22" width="58.216145833333336" y="46" x="39.450520833333336" class="er attributeBoxEven"/><text style="dominant-baseline: middle; font-size: 10.2px;" transform="translate(44.450520833333336,57)" y="0" x="0" id="text-entity-habitweekdays-42fe390a-9656-481e-a584-3d0b083e19c0-attr-2-name" class="er entityLabel">habit_id</text><rect height="22" width="24.489583333333332" y="46" x="97.66666666666667" class="er attributeBoxEven"/><text style="dominant-baseline: middle; font-size: 10.2px;" transform="translate(102.66666666666667,57)" y="0" x="0" id="text-entity-habitweekdays-42fe390a-9656-481e-a584-3d0b083e19c0-attr-2-key" class="er entityLabel"/><rect height="22" width="39.450520833333336" y="68" x="0" class="er attributeBoxOdd"/><text style="dominant-baseline: middle; font-size: 10.2px;" transform="translate(5,79)" y="0" x="0" id="text-entity-habitweekdays-42fe390a-9656-481e-a584-3d0b083e19c0-attr-3-type" class="er entityLabel">Int</text><rect height="22" width="58.216145833333336" y="68" x="39.450520833333336" class="er attributeBoxOdd"/><text style="dominant-baseline: middle; font-size: 10.2px;" transform="translate(44.450520833333336,79)" y="0" x="0" id="text-entity-habitweekdays-42fe390a-9656-481e-a584-3d0b083e19c0-attr-3-name" class="er entityLabel">week_day</text><rect height="22" width="24.489583333333332" y="68" x="97.66666666666667" class="er attributeBoxOdd"/><text style="dominant-baseline: middle; font-size: 10.2px;" transform="translate(102.66666666666667,79)" y="0" x="0" id="text-entity-habitweekdays-42fe390a-9656-481e-a584-3d0b083e19c0-attr-3-key" class="er entityLabel"/></g><g transform="translate(345.54296875,243 )" id="entity-days-a858f943-3d9e-4175-84a3-2cc4251d2c45"><rect height="68" width="105.8828125" y="0" x="0" class="er entityBox"/><text style="dominant-baseline: middle; text-anchor: middle; font-size: 12px;" transform="translate(52.94140625,12)" y="0" x="0" id="text-entity-days-a858f943-3d9e-4175-84a3-2cc4251d2c45" class="er entityLabel">days</text><rect height="22" width="53.6640625" y="24" x="0" class="er attributeBoxOdd"/><text style="dominant-baseline: middle; font-size: 10.2px;" transform="translate(5,35)" y="0" x="0" id="text-entity-days-a858f943-3d9e-4175-84a3-2cc4251d2c45-attr-1-type" class="er entityLabel">String</text><rect height="22" width="30.65625" y="24" x="53.6640625" class="er attributeBoxOdd"/><text style="dominant-baseline: middle; font-size: 10.2px;" transform="translate(58.6640625,35)" y="0" x="0" id="text-entity-days-a858f943-3d9e-4175-84a3-2cc4251d2c45-attr-1-name" class="er entityLabel">id</text><rect height="22" width="21.5625" y="24" x="84.3203125" class="er attributeBoxOdd"/><text style="dominant-baseline: middle; font-size: 10.2px;" transform="translate(89.3203125,35)" y="0" x="0" id="text-entity-days-a858f943-3d9e-4175-84a3-2cc4251d2c45-attr-1-key" class="er entityLabel">PK</text><rect height="22" width="53.6640625" y="46" x="0" class="er attributeBoxEven"/><text style="dominant-baseline: middle; font-size: 10.2px;" transform="translate(5,57)" y="0" x="0" id="text-entity-days-a858f943-3d9e-4175-84a3-2cc4251d2c45-attr-2-type" class="er entityLabel">DateTime</text><rect height="22" width="30.65625" y="46" x="53.6640625" class="er attributeBoxEven"/><text style="dominant-baseline: middle; font-size: 10.2px;" transform="translate(58.6640625,57)" y="0" x="0" id="text-entity-days-a858f943-3d9e-4175-84a3-2cc4251d2c45-attr-2-name" class="er entityLabel">date</text><rect height="22" width="21.5625" y="46" x="84.3203125" class="er attributeBoxEven"/><text style="dominant-baseline: middle; font-size: 10.2px;" transform="translate(89.3203125,57)" y="0" x="0" id="text-entity-days-a858f943-3d9e-4175-84a3-2cc4251d2c45-attr-2-key" class="er entityLabel"/></g><g transform="translate(295.296875,20 )" id="entity-dayhabits-d64ff54f-2473-44b4-b37e-3595c8bb975c"><rect height="112" width="106.375" y="0" x="0" class="er entityBox"/><text style="dominant-baseline: middle; text-anchor: middle; font-size: 12px;" transform="translate(53.1875,12)" y="0" x="0" id="text-entity-dayhabits-d64ff54f-2473-44b4-b37e-3595c8bb975c" class="er entityLabel">day_habits</text><rect height="22" width="36.5234375" y="24" x="0" class="er attributeBoxOdd"/><text style="dominant-baseline: middle; font-size: 10.2px;" transform="translate(5,35)" y="0" x="0" id="text-entity-dayhabits-d64ff54f-2473-44b4-b37e-3595c8bb975c-attr-1-type" class="er entityLabel">String</text><rect height="22" width="48.2890625" y="24" x="36.5234375" class="er attributeBoxOdd"/><text style="dominant-baseline: middle; font-size: 10.2px;" transform="translate(41.5234375,35)" y="0" x="0" id="text-entity-dayhabits-d64ff54f-2473-44b4-b37e-3595c8bb975c-attr-1-name" class="er entityLabel">id</text><rect height="22" width="21.5625" y="24" x="84.8125" class="er attributeBoxOdd"/><text style="dominant-baseline: middle; font-size: 10.2px;" transform="translate(89.8125,35)" y="0" x="0" id="text-entity-dayhabits-d64ff54f-2473-44b4-b37e-3595c8bb975c-attr-1-key" class="er entityLabel">PK</text><rect height="22" width="36.5234375" y="46" x="0" class="er attributeBoxEven"/><text style="dominant-baseline: middle; font-size: 10.2px;" transform="translate(5,57)" y="0" x="0" id="text-entity-dayhabits-d64ff54f-2473-44b4-b37e-3595c8bb975c-attr-2-type" class="er entityLabel">String</text><rect height="22" width="48.2890625" y="46" x="36.5234375" class="er attributeBoxEven"/><text style="dominant-baseline: middle; font-size: 10.2px;" transform="translate(41.5234375,57)" y="0" x="0" id="text-entity-dayhabits-d64ff54f-2473-44b4-b37e-3595c8bb975c-attr-2-name" class="er entityLabel">day_id</text><rect height="22" width="21.5625" y="46" x="84.8125" class="er attributeBoxEven"/><text style="dominant-baseline: middle; font-size: 10.2px;" transform="translate(89.8125,57)" y="0" x="0" id="text-entity-dayhabits-d64ff54f-2473-44b4-b37e-3595c8bb975c-attr-2-key" class="er entityLabel"/><rect height="22" width="36.5234375" y="68" x="0" class="er attributeBoxOdd"/><text style="dominant-baseline: middle; font-size: 10.2px;" transform="translate(5,79)" y="0" x="0" id="text-entity-dayhabits-d64ff54f-2473-44b4-b37e-3595c8bb975c-attr-3-type" class="er entityLabel">String</text><rect height="22" width="48.2890625" y="68" x="36.5234375" class="er attributeBoxOdd"/><text style="dominant-baseline: middle; font-size: 10.2px;" transform="translate(41.5234375,79)" y="0" x="0" id="text-entity-dayhabits-d64ff54f-2473-44b4-b37e-3595c8bb975c-attr-3-name" class="er entityLabel">habit_id</text><rect height="22" width="21.5625" y="68" x="84.8125" class="er attributeBoxOdd"/><text style="dominant-baseline: middle; font-size: 10.2px;" transform="translate(89.8125,79)" y="0" x="0" id="text-entity-dayhabits-d64ff54f-2473-44b4-b37e-3595c8bb975c-attr-3-key" class="er entityLabel"/><rect height="22" width="36.5234375" y="90" x="0" class="er attributeBoxEven"/><text style="dominant-baseline: middle; font-size: 10.2px;" transform="translate(5,101)" y="0" x="0" id="text-entity-dayhabits-d64ff54f-2473-44b4-b37e-3595c8bb975c-attr-4-type" class="er entityLabel">String</text><rect height="22" width="48.2890625" y="90" x="36.5234375" class="er attributeBoxEven"/><text style="dominant-baseline: middle; font-size: 10.2px;" transform="translate(41.5234375,101)" y="0" x="0" id="text-entity-dayhabits-d64ff54f-2473-44b4-b37e-3595c8bb975c-attr-4-name" class="er entityLabel">deviceId</text><rect height="22" width="21.5625" y="90" x="84.8125" class="er attributeBoxEven"/><text style="dominant-baseline: middle; font-size: 10.2px;" transform="translate(89.8125,101)" y="0" x="0" id="text-entity-dayhabits-d64ff54f-2473-44b4-b37e-3595c8bb975c-attr-4-key" class="er entityLabel"/></g><g transform="translate(191.3515625,422 )" id="entity-device-464da9f4-653f-4184-917c-3bc50338b230"><rect height="46" width="100" y="0" x="0" class="er entityBox"/><text style="dominant-baseline: middle; text-anchor: middle; font-size: 12px;" transform="translate(50,12)" y="0" x="0" id="text-entity-device-464da9f4-653f-4184-917c-3bc50338b230" class="er entityLabel">device</text><rect height="22" width="44.296875" y="24" x="0" class="er attributeBoxOdd"/><text style="dominant-baseline: middle; font-size: 10.2px;" transform="translate(5,35)" y="0" x="0" id="text-entity-device-464da9f4-653f-4184-917c-3bc50338b230-attr-1-type" class="er entityLabel">String</text><rect height="22" width="26.3671875" y="24" x="44.296875" class="er attributeBoxOdd"/><text style="dominant-baseline: middle; font-size: 10.2px;" transform="translate(49.296875,35)" y="0" x="0" id="text-entity-device-464da9f4-653f-4184-917c-3bc50338b230-attr-1-name" class="er entityLabel">id</text><rect height="22" width="29.3359375" y="24" x="70.6640625" class="er attributeBoxOdd"/><text style="dominant-baseline: middle; font-size: 10.2px;" transform="translate(75.6640625,35)" y="0" x="0" id="text-entity-device-464da9f4-653f-4184-917c-3bc50338b230-attr-1-key" class="er entityLabel">PK</text></g><rect height="14" width="35.015625" y="375.40753173828125" x="135.50604248046875" class="er relationshipLabelBox"/><text style="text-anchor: middle; dominant-baseline: middle; font-size: 12px;" y="382.40753173828125" x="153.01385498046875" id="rel1" class="er relationshipLabel">device</text><rect height="14" width="27.7265625" y="171.69284057617188" x="71.26161193847656" class="er relationshipLabelBox"/><text style="text-anchor: middle; dominant-baseline: middle; font-size: 12px;" y="178.69284057617188" x="85.12489318847656" id="rel2" class="er relationshipLabel">habit</text><rect height="14" width="35.015625" y="376.0209655761719" x="347.60345458984375" class="er relationshipLabelBox"/><text style="text-anchor: middle; dominant-baseline: middle; font-size: 12px;" y="383.0209655761719" x="365.11126708984375" id="rel3" class="er relationshipLabel">device</text><rect height="14" width="18.9140625" y="178.71371459960938" x="385.48138427734375" class="er relationshipLabelBox"/><text style="text-anchor: middle; dominant-baseline: middle; font-size: 12px;" y="185.71371459960938" x="394.93841552734375" id="rel4" class="er relationshipLabel">day</text><rect height="14" width="27.7265625" y="173.322509765625" x="225.3993377685547" class="er relationshipLabelBox"/><text style="text-anchor: middle; dominant-baseline: middle; font-size: 12px;" y="180.322509765625" x="239.2626190185547" id="rel5" class="er relationshipLabel">habit</text></svg>